<svg xmlns="http://www.w3.org/2000/svg" xmlns:xlink="http://www.w3.org/1999/xlink" width="793" zoomAndPan="magnify" viewBox="0 0 595.5 842.249979" height="1122" preserveAspectRatio="xMidYMid meet" version="1.0"><defs><g/><clipPath id="35abebb310"><path d="M 0.015625 0 L 594.984375 0 L 594.984375 841.5 L 0.015625 841.5 Z M 0.015625 0 " clip-rule="nonzero"/></clipPath><clipPath id="6d16a2516f"><path d="M 120.929688 176.945312 L 481.359375 176.945312 L 481.359375 537.371094 L 120.929688 537.371094 Z M 120.929688 176.945312 " clip-rule="nonzero"/></clipPath></defs><g clip-path="url(#35abebb310)"><path fill="#ffffff" d="M 0.015625 0 L 594.984375 0 L 594.984375 841.5 L 0.015625 841.5 Z M 0.015625 0 " fill-opacity="1" fill-rule="nonzero"/><path fill="#ffffff" d="M 0.015625 0 L 594.984375 0 L 594.984375 841.5 L 0.015625 841.5 Z M 0.015625 0 " fill-opacity="1" fill-rule="nonzero"/></g><path fill="#5271ff" d="M 322.015625 352.15625 L 322.015625 352.207031 C 322.015625 357.976562 319.699219 363.207031 315.871094 366.980469 C 312.097656 370.753906 306.867188 373.125 301.046875 373.125 C 295.277344 373.125 290.046875 370.753906 286.21875 366.980469 C 282.445312 363.152344 280.074219 357.921875 280.074219 352.15625 C 280.074219 339.054688 284.28125 326.925781 291.449219 317.058594 C 283.417969 310.265625 273.066406 306.167969 261.796875 306.167969 C 249.183594 306.167969 237.699219 311.34375 229.34375 319.699219 C 221.042969 328.003906 215.867188 339.484375 215.867188 352.15625 L 215.867188 440.300781 L 311.9375 440.300781 C 315.871094 440.300781 319.050781 443.535156 319.050781 447.46875 L 319.050781 476.097656 L 351.722656 442.511719 C 353.070312 441.054688 354.957031 440.355469 356.789062 440.355469 L 356.789062 440.300781 L 386.28125 440.300781 L 386.28125 352.15625 C 386.28125 339.484375 381.105469 328.003906 372.746094 319.699219 C 364.445312 311.34375 352.960938 306.167969 340.292969 306.167969 C 329.078125 306.167969 318.730469 310.265625 310.695312 317.058594 C 317.8125 326.925781 322.015625 339.054688 322.015625 352.15625 Z M 343.472656 388.761719 C 347.410156 388.761719 351.023438 390.378906 353.609375 392.964844 C 356.195312 395.554688 357.761719 399.164062 357.761719 403.101562 C 357.761719 407.035156 356.195312 410.59375 353.609375 413.183594 C 351.023438 415.769531 347.410156 417.386719 343.472656 417.386719 C 339.539062 417.386719 335.925781 415.769531 333.339844 413.183594 C 330.75 410.59375 329.1875 407.035156 329.1875 403.101562 C 329.1875 399.164062 330.75 395.554688 333.339844 392.964844 C 335.925781 390.378906 339.539062 388.761719 343.472656 388.761719 Z M 301.046875 388.761719 C 305.035156 388.761719 308.59375 390.378906 311.179688 392.964844 C 313.769531 395.554688 315.386719 399.164062 315.386719 403.101562 C 315.386719 407.035156 313.769531 410.59375 311.179688 413.183594 C 308.59375 415.769531 305.035156 417.386719 301.046875 417.386719 C 297.109375 417.386719 293.550781 415.769531 290.964844 413.183594 C 288.375 410.59375 286.757812 407.035156 286.757812 403.101562 C 286.757812 399.164062 288.375 395.554688 290.964844 392.964844 C 293.550781 390.378906 297.109375 388.761719 301.046875 388.761719 Z M 258.671875 388.761719 C 262.605469 388.761719 266.164062 390.378906 268.753906 392.964844 C 271.339844 395.554688 272.957031 399.164062 272.957031 403.101562 C 272.957031 407.035156 271.339844 410.59375 268.753906 413.183594 C 266.164062 415.769531 262.605469 417.386719 258.671875 417.386719 C 254.683594 417.386719 251.125 415.769531 248.535156 413.183594 C 245.949219 410.59375 244.332031 407.035156 244.332031 403.101562 C 244.332031 399.164062 245.949219 395.554688 248.535156 392.964844 C 251.125 390.378906 254.683594 388.761719 258.671875 388.761719 Z M 340.292969 213.441406 C 349.675781 213.441406 358.085938 217.214844 364.230469 223.359375 C 370.375 229.453125 374.148438 237.917969 374.148438 247.242188 C 374.148438 256.625 370.375 265.089844 364.230469 271.179688 C 358.085938 277.328125 349.675781 281.101562 340.292969 281.101562 C 330.964844 281.101562 322.503906 277.328125 316.355469 271.179688 C 310.265625 265.089844 306.492188 256.625 306.492188 247.242188 C 306.492188 237.917969 310.265625 229.453125 316.355469 223.359375 C 322.503906 217.214844 330.964844 213.441406 340.292969 213.441406 Z M 354.148438 233.441406 C 350.589844 229.882812 345.738281 227.675781 340.292969 227.675781 C 334.902344 227.675781 329.996094 229.882812 326.4375 233.441406 C 322.933594 236.945312 320.722656 241.851562 320.722656 247.242188 C 320.722656 252.6875 322.933594 257.59375 326.4375 261.097656 C 329.996094 264.65625 334.902344 266.867188 340.292969 266.867188 C 345.738281 266.867188 350.589844 264.65625 354.148438 261.097656 C 357.707031 257.59375 359.917969 252.6875 359.917969 247.242188 C 359.917969 241.851562 357.707031 236.945312 354.148438 233.441406 Z M 261.796875 213.441406 C 271.179688 213.441406 279.644531 217.214844 285.734375 223.359375 C 291.882812 229.453125 295.65625 237.917969 295.65625 247.242188 C 295.65625 256.625 291.882812 265.089844 285.734375 271.179688 C 279.644531 277.328125 271.179688 281.101562 261.796875 281.101562 C 252.472656 281.101562 244.007812 277.328125 237.917969 271.179688 C 231.769531 265.089844 227.996094 256.625 227.996094 247.242188 C 227.996094 237.917969 231.769531 229.453125 237.917969 223.359375 C 244.007812 217.214844 252.472656 213.441406 261.796875 213.441406 Z M 275.652344 233.441406 C 272.148438 229.882812 267.242188 227.675781 261.796875 227.675781 C 256.40625 227.675781 251.5 229.882812 247.945312 233.441406 C 244.4375 236.945312 242.230469 241.851562 242.230469 247.242188 C 242.230469 252.6875 244.4375 257.59375 247.945312 261.097656 C 251.5 264.65625 256.40625 266.867188 261.796875 266.867188 C 267.242188 266.867188 272.148438 264.65625 275.652344 261.097656 C 279.210938 257.59375 281.421875 252.6875 281.421875 247.242188 C 281.421875 241.851562 279.210938 236.945312 275.652344 233.441406 Z M 307.785156 352.101562 C 307.785156 343.421875 305.304688 335.226562 301.046875 328.273438 C 296.785156 335.226562 294.359375 343.421875 294.359375 352.15625 C 294.359375 353.988281 295.0625 355.660156 296.300781 356.898438 C 297.542969 358.140625 299.214844 358.894531 301.046875 358.894531 C 302.933594 358.894531 304.605469 358.140625 305.84375 356.898438 C 307.03125 355.660156 307.785156 353.988281 307.785156 352.15625 Z M 261.796875 291.9375 C 276.785156 291.9375 290.480469 297.433594 301.046875 306.546875 C 311.613281 297.433594 325.359375 291.9375 340.292969 291.9375 C 356.898438 291.9375 371.9375 298.675781 382.828125 309.617188 C 393.773438 320.507812 400.511719 335.550781 400.511719 352.15625 L 400.511719 447.46875 C 400.511719 451.40625 397.332031 454.585938 393.394531 454.585938 L 359.753906 454.585938 L 317.382812 498.199219 C 316.085938 499.765625 314.144531 500.734375 311.9375 500.734375 C 308 500.734375 304.820312 497.554688 304.820312 493.617188 L 304.820312 454.585938 L 208.75 454.585938 C 204.816406 454.585938 201.578125 451.40625 201.578125 447.46875 L 201.578125 352.15625 C 201.578125 335.550781 208.371094 320.507812 219.261719 309.617188 C 230.207031 298.675781 245.246094 291.9375 261.796875 291.9375 Z M 261.796875 291.9375 " fill-opacity="1" fill-rule="nonzero"/><g clip-path="url(#6d16a2516f)"><path fill="#5271ff" d="M 387.898438 199.316406 C 431.457031 223.253906 461.214844 262.664062 474.046875 306.921875 C 486.878906 351.183594 482.835938 400.351562 458.84375 443.910156 C 434.855469 487.472656 395.5 517.230469 351.238281 530.0625 C 333.5 535.183594 322.933594 537.664062 304.335938 537.179688 L 304.710938 523.863281 C 319.269531 523.539062 333.664062 521.328125 347.515625 517.285156 C 388.542969 505.425781 424.988281 477.875 447.199219 437.496094 C 469.410156 397.171875 473.183594 351.617188 461.269531 310.589844 C 449.410156 269.617188 421.859375 233.117188 381.480469 210.90625 C 341.15625 188.695312 295.601562 184.976562 254.574219 196.835938 C 213.601562 208.75 177.105469 236.300781 154.894531 276.625 C 132.679688 317.003906 128.960938 362.558594 140.820312 403.53125 C 152.738281 444.558594 180.285156 481.003906 220.609375 503.214844 C 226.539062 506.503906 238.941406 511.839844 245.03125 514.320312 L 244.925781 528.230469 C 234.464844 524.777344 224.222656 520.359375 214.25 514.859375 C 170.636719 490.867188 140.929688 451.511719 128.097656 407.253906 C 115.269531 362.992188 119.3125 313.824219 143.300781 270.265625 C 167.238281 226.648438 206.648438 196.945312 250.910156 184.113281 C 295.167969 171.28125 344.335938 175.328125 387.898438 199.316406 Z M 387.898438 199.316406 " fill-opacity="1" fill-rule="nonzero"/></g><g fill="#5271ff" fill-opacity="1"><g transform="translate(181.823714, 595.203159)"><g><path d="M 24.1875 -9.640625 C 24.1875 -7.671875 23.6875 -5.921875 22.6875 -4.390625 C 21.6875 -2.867188 20.242188 -1.679688 18.359375 -0.828125 C 16.484375 0.015625 14.28125 0.4375 11.75 0.4375 C 9.632812 0.4375 7.859375 0.289062 6.421875 0 C 4.992188 -0.300781 3.503906 -0.820312 1.953125 -1.5625 L 1.953125 -9.203125 C 3.585938 -8.367188 5.285156 -7.710938 7.046875 -7.234375 C 8.816406 -6.765625 10.441406 -6.53125 11.921875 -6.53125 C 13.191406 -6.53125 14.125 -6.75 14.71875 -7.1875 C 15.3125 -7.632812 15.609375 -8.207031 15.609375 -8.90625 C 15.609375 -9.332031 15.488281 -9.707031 15.25 -10.03125 C 15.007812 -10.363281 14.625 -10.695312 14.09375 -11.03125 C 13.570312 -11.363281 12.164062 -12.046875 9.875 -13.078125 C 7.8125 -14.015625 6.257812 -14.921875 5.21875 -15.796875 C 4.1875 -16.679688 3.421875 -17.695312 2.921875 -18.84375 C 2.421875 -19.988281 2.171875 -21.34375 2.171875 -22.90625 C 2.171875 -25.832031 3.234375 -28.113281 5.359375 -29.75 C 7.492188 -31.382812 10.421875 -32.203125 14.140625 -32.203125 C 17.421875 -32.203125 20.769531 -31.441406 24.1875 -29.921875 L 21.5625 -23.296875 C 18.59375 -24.660156 16.03125 -25.34375 13.875 -25.34375 C 12.757812 -25.34375 11.945312 -25.144531 11.4375 -24.75 C 10.9375 -24.363281 10.6875 -23.878906 10.6875 -23.296875 C 10.6875 -22.671875 11.003906 -22.113281 11.640625 -21.625 C 12.285156 -21.132812 14.035156 -20.238281 16.890625 -18.9375 C 19.628906 -17.707031 21.53125 -16.382812 22.59375 -14.96875 C 23.65625 -13.5625 24.1875 -11.785156 24.1875 -9.640625 Z M 24.1875 -9.640625 "/></g></g></g><g fill="#5271ff" fill-opacity="1"><g transform="translate(207.481718, 595.203159)"><g><path d="M 33.140625 -15.921875 C 33.140625 -10.578125 31.828125 -6.515625 29.203125 -3.734375 C 26.585938 -0.953125 22.753906 0.4375 17.703125 0.4375 C 12.722656 0.4375 8.90625 -0.957031 6.25 -3.75 C 3.59375 -6.550781 2.265625 -10.617188 2.265625 -15.953125 C 2.265625 -21.242188 3.582031 -25.28125 6.21875 -28.0625 C 8.863281 -30.851562 12.703125 -32.25 17.734375 -32.25 C 22.785156 -32.25 26.613281 -30.863281 29.21875 -28.09375 C 31.832031 -25.332031 33.140625 -21.273438 33.140625 -15.921875 Z M 11.296875 -15.921875 C 11.296875 -9.773438 13.429688 -6.703125 17.703125 -6.703125 C 19.867188 -6.703125 21.476562 -7.445312 22.53125 -8.9375 C 23.582031 -10.4375 24.109375 -12.765625 24.109375 -15.921875 C 24.109375 -19.085938 23.570312 -21.425781 22.5 -22.9375 C 21.4375 -24.445312 19.847656 -25.203125 17.734375 -25.203125 C 13.441406 -25.203125 11.296875 -22.109375 11.296875 -15.921875 Z M 11.296875 -15.921875 "/></g></g></g><g fill="#5271ff" fill-opacity="1"><g transform="translate(242.907997, 595.203159)"><g><path d="M 17.5625 -25.171875 C 15.519531 -25.171875 13.925781 -24.332031 12.78125 -22.65625 C 11.644531 -20.988281 11.078125 -18.679688 11.078125 -15.734375 C 11.078125 -9.628906 13.398438 -6.578125 18.046875 -6.578125 C 19.453125 -6.578125 20.8125 -6.769531 22.125 -7.15625 C 23.445312 -7.550781 24.769531 -8.023438 26.09375 -8.578125 L 26.09375 -1.328125 C 23.445312 -0.148438 20.453125 0.4375 17.109375 0.4375 C 12.316406 0.4375 8.644531 -0.953125 6.09375 -3.734375 C 3.539062 -6.515625 2.265625 -10.53125 2.265625 -15.78125 C 2.265625 -19.070312 2.878906 -21.960938 4.109375 -24.453125 C 5.347656 -26.941406 7.128906 -28.851562 9.453125 -30.1875 C 11.773438 -31.53125 14.507812 -32.203125 17.65625 -32.203125 C 21.082031 -32.203125 24.359375 -31.457031 27.484375 -29.96875 L 24.859375 -23.21875 C 23.691406 -23.757812 22.519531 -24.21875 21.34375 -24.59375 C 20.164062 -24.976562 18.90625 -25.171875 17.5625 -25.171875 Z M 17.5625 -25.171875 "/></g></g></g><g fill="#5271ff" fill-opacity="1"><g transform="translate(271.756975, 595.203159)"><g><path d="M 3.4375 0 L 3.4375 -31.75 L 12.046875 -31.75 L 12.046875 0 Z M 3.4375 0 "/></g></g></g><g fill="#5271ff" fill-opacity="1"><g transform="translate(287.23427, 595.203159)"><g><path d="M 33.140625 -15.921875 C 33.140625 -10.578125 31.828125 -6.515625 29.203125 -3.734375 C 26.585938 -0.953125 22.753906 0.4375 17.703125 0.4375 C 12.722656 0.4375 8.90625 -0.957031 6.25 -3.75 C 3.59375 -6.550781 2.265625 -10.617188 2.265625 -15.953125 C 2.265625 -21.242188 3.582031 -25.28125 6.21875 -28.0625 C 8.863281 -30.851562 12.703125 -32.25 17.734375 -32.25 C 22.785156 -32.25 26.613281 -30.863281 29.21875 -28.09375 C 31.832031 -25.332031 33.140625 -21.273438 33.140625 -15.921875 Z M 11.296875 -15.921875 C 11.296875 -9.773438 13.429688 -6.703125 17.703125 -6.703125 C 19.867188 -6.703125 21.476562 -7.445312 22.53125 -8.9375 C 23.582031 -10.4375 24.109375 -12.765625 24.109375 -15.921875 C 24.109375 -19.085938 23.570312 -21.425781 22.5 -22.9375 C 21.4375 -24.445312 19.847656 -25.203125 17.734375 -25.203125 C 13.441406 -25.203125 11.296875 -22.109375 11.296875 -15.921875 Z M 11.296875 -15.921875 "/></g></g></g><g fill="#5271ff" fill-opacity="1"><g transform="translate(322.660549, 595.203159)"><g><path d="M 30.640625 0 L 22.015625 0 L 22.015625 -12.9375 L 12.046875 -12.9375 L 12.046875 0 L 3.4375 0 L 3.4375 -31.75 L 12.046875 -31.75 L 12.046875 -19.96875 L 22.015625 -19.96875 L 22.015625 -31.75 L 30.640625 -31.75 Z M 30.640625 0 "/></g></g></g><g fill="#5271ff" fill-opacity="1"><g transform="translate(356.719275, 595.203159)"><g><path d="M 30.421875 -31.75 L 30.421875 -12.640625 C 30.421875 -8.484375 29.242188 -5.265625 26.890625 -2.984375 C 24.535156 -0.703125 21.144531 0.4375 16.71875 0.4375 C 12.394531 0.4375 9.066406 -0.664062 6.734375 -2.875 C 4.410156 -5.09375 3.25 -8.28125 3.25 -12.4375 L 3.25 -31.75 L 11.875 -31.75 L 11.875 -13.109375 C 11.875 -10.867188 12.289062 -9.238281 13.125 -8.21875 C 13.96875 -7.207031 15.207031 -6.703125 16.84375 -6.703125 C 18.601562 -6.703125 19.875 -7.207031 20.65625 -8.21875 C 21.445312 -9.226562 21.84375 -10.875 21.84375 -13.15625 L 21.84375 -31.75 Z M 30.421875 -31.75 "/></g></g></g><g fill="#5271ff" fill-opacity="1"><g transform="translate(390.365568, 595.203159)"><g><path d="M 3.4375 -31.75 L 14.5 -31.75 C 18.8125 -31.75 22.015625 -31.109375 24.109375 -29.828125 C 26.203125 -28.546875 27.25 -26.550781 27.25 -23.84375 C 27.25 -22.0625 26.789062 -20.539062 25.875 -19.28125 C 24.96875 -18.019531 23.769531 -17.207031 22.28125 -16.84375 L 22.28125 -16.625 C 24.25 -16.101562 25.671875 -15.234375 26.546875 -14.015625 C 27.429688 -12.804688 27.875 -11.234375 27.875 -9.296875 C 27.875 -6.410156 26.789062 -4.140625 24.625 -2.484375 C 22.46875 -0.828125 19.519531 0 15.78125 0 L 3.4375 0 Z M 12 -19.5625 L 14.59375 -19.5625 C 15.820312 -19.5625 16.769531 -19.8125 17.4375 -20.3125 C 18.113281 -20.820312 18.453125 -21.578125 18.453125 -22.578125 C 18.453125 -24.359375 17.109375 -25.25 14.421875 -25.25 L 12 -25.25 Z M 12 -13.28125 L 12 -6.625 L 15.03125 -6.625 C 17.707031 -6.625 19.046875 -7.753906 19.046875 -10.015625 C 19.046875 -11.066406 18.6875 -11.875 17.96875 -12.4375 C 17.25 -13 16.210938 -13.28125 14.859375 -13.28125 Z M 12 -13.28125 "/></g></g></g></svg>